<svg width="57" height="56" viewBox="0 0 57 56" xmlns="http://www.w3.org/2000/svg">
<path d="M13.3346 40.6707C14.2095 40.6707 14.9186 39.9593 14.9186 39.0818C14.9186 38.2042 14.2095 37.4929 13.3346 37.4929C12.4598 37.4929 11.7506 38.2042 11.7506 39.0818C11.7506 39.9593 12.4598 40.6707 13.3346 40.6707Z"/>
<path d="M13.3346 47.6232C14.2095 47.6232 14.9186 46.9119 14.9186 46.0343C14.9186 45.1568 14.2095 44.4454 13.3346 44.4454C12.4598 44.4454 11.7506 45.1568 11.7506 46.0343C11.7506 46.9119 12.4598 47.6232 13.3346 47.6232Z"/>
<path d="M49.5022 0.193769H6.7359C4.95399 0.183457 3.24146 0.885897 1.97728 2.14564C0.713096 3.40538 0.00151344 5.11855 1.17875e-06 6.90602V49.0107C-0.00217482 52.7495 3.00864 55.787 6.7359 55.8062H49.5022C53.2245 55.7849 56.2268 52.7446 56.2129 49.0107V6.90602C56.2176 5.12103 55.5114 3.40808 54.2514 2.14771C52.9913 0.88735 51.2816 0.183947 49.5022 0.193769ZM41.7753 50.5744H37.2628C37.1149 50.5765 36.9724 50.519 36.8671 50.4148C36.7619 50.3107 36.7026 50.1685 36.7026 50.0202V47.0865H30.6621C29.8605 47.0865 29.2095 46.8249 29.2095 46.0208C29.2095 45.2166 29.8605 44.955 30.6621 44.955H36.7026V40.1107H30.6621C29.8605 40.1107 29.2095 39.8491 29.2095 39.045C29.2095 38.2408 29.8605 37.9792 30.6621 37.9792H36.7026V35.3246C36.6967 34.9987 36.9397 34.7221 37.2628 34.6871H41.3059C41.3329 34.6871 41.3561 34.7297 41.3812 34.7316C41.5106 34.7316 41.6729 34.7432 41.8023 34.7432C45.1848 34.7432 48.2948 36.369 49.8402 37.8901V16.24L23.1806 18.5788V42.4786C23.1806 46.8017 18.7164 50.307 13.2593 50.307C7.8022 50.307 3.35539 46.8036 3.35539 42.4786C3.35539 38.1536 7.7713 34.6522 13.2303 34.6522C16.8426 34.6522 19.7421 36.4349 20.7988 37.892C20.7988 37.892 20.82 9.32623 20.7988 8.77979C20.7775 8.23335 21.4691 8.0047 21.4691 8.0047C21.4691 8.0047 50.8312 5.61937 51.4223 5.58837C51.7698 5.5823 52.0749 5.8191 52.1563 6.15806V42.5755C52.1563 42.6104 52.1119 42.6414 52.1119 42.6782C52.1119 47.0536 47.4623 50.5744 41.7772 50.5744H41.7753Z"/>
</svg>
