<svg width="100" height="42" viewBox="0 0 100 42" xmlns="http://www.w3.org/2000/svg">
<path fill-rule="evenodd" clip-rule="evenodd" d="M1 2C1 1.44771 1.44772 1 2 1H12C12.5523 1 13 1.44772 13 2V14.3386C13 15.2619 14.1445 15.692 14.7526 14.9971L26.7012 1.34149C26.8911 1.12448 27.1654 1 27.4538 1H40.2399C40.6891 1 41.0832 1.29954 41.2034 1.73236L47.5964 24.7471C47.8629 25.7064 49.2148 25.7295 49.5138 24.7797L56.7797 1.69971C56.9108 1.28326 57.297 1 57.7336 1H86.8377C86.9452 1 87.052 1.01733 87.154 1.05132L89.9326 1.97753C89.9775 1.99249 90.0212 2.01062 90.0636 2.03178L93.8549 3.92743C93.951 3.97549 94.0387 4.03875 94.1147 4.11475L96.8853 6.88525C96.9613 6.96125 97.0245 7.04901 97.0726 7.14515L98.8944 10.7889C98.9639 10.9277 99 11.0808 99 11.2361V16.8377C99 16.9452 98.9827 17.052 98.9487 17.154L98.0747 19.776C98.0256 19.9233 97.9428 20.0572 97.8331 20.1669L93.1959 24.8041C93.0677 24.9323 92.9071 25.0232 92.7313 25.0672L89 26L86.0333 26.4944C85.078 26.6537 84.8843 27.9421 85.7505 28.3753L88.7889 29.8944C88.9277 29.9639 89.0808 30 89.2361 30H98C98.5523 30 99 30.4477 99 31V40C99 40.5523 98.5523 41 98 41H87.1926C87.0654 41 86.9393 40.9757 86.8212 40.9285L82.1696 39.0679C82.0575 39.023 81.9544 38.9582 81.8653 38.8765L71.6757 29.5361C71.0343 28.9481 70 29.4031 70 30.2732V40C70 40.5523 69.5523 41 69 41H28.2361C28.0808 41 27.9277 40.9639 27.7889 40.8944L24.1345 39.0672C24.0453 39.0227 23.9633 38.965 23.8912 38.8962L14.6905 30.1136C14.0541 29.5062 13 29.9573 13 30.837V40C13 40.5523 12.5523 41 12 41H2C1.44772 41 1 40.5523 1 40V2ZM84.2519 10.1679C84.0877 10.0584 83.8946 10 83.6972 10H71C70.4477 10 70 10.4477 70 11V17C70 17.5523 70.4477 18 71 18H84.5194C84.8232 18 85.1105 17.8619 85.3002 17.6247L86.7809 15.7739C86.9227 15.5966 87 15.3763 87 15.1492V12.5352C87 12.2008 86.8329 11.8886 86.5547 11.7031L84.2519 10.1679ZM22.7402 23.1873C22.3326 22.8088 22.3121 22.1705 22.6947 21.7668L29.805 14.2614C30.3352 13.7017 31.2727 13.9273 31.4903 14.667L35.6229 28.7178C35.8113 29.3583 35.3311 30 34.6635 30H31.2361C31.0808 30 30.9277 29.9639 30.7889 29.8944L29.1282 29.0641C29.0432 29.0216 28.9646 28.9672 28.895 28.9025L22.7402 23.1873Z" />
</svg>
