<svg width="27" height="32" viewBox="0 0 27 32" fill="none" xmlns="http://www.w3.org/2000/svg">
<mask id="path-1-outside-1_643_277" maskUnits="userSpaceOnUse" x="0" y="0" width="28" height="33" fill="black">
<rect fill="white" width="28" height="33"/>
<path d="M11.412 31.824C9.228 31.824 7.428 31.572 6.012 31.068C4.62 30.588 3.516 29.94 2.7 29.124C1.908 28.308 1.356 27.372 1.044 26.316C0.756 25.26 0.612 24.168 0.612 23.04V18.288C0.612 17.976 0.648 17.712 0.72 17.496C0.816 17.256 0.936 17.076 1.08 16.956L5.76 13.032C5.88 12.936 6.036 12.864 6.228 12.816C6.42 12.744 6.648 12.708 6.912 12.708H12.132C12.396 12.708 12.624 12.744 12.816 12.816C13.032 12.864 13.212 12.948 13.356 13.068V6.3C13.356 5.988 13.392 5.724 13.464 5.508C13.56 5.292 13.692 5.112 13.86 4.968L18.504 1.044C18.624 0.947999 18.78 0.875999 18.972 0.827998C19.188 0.755999 19.416 0.719999 19.656 0.719999H25.308C25.884 0.719999 26.304 0.851999 26.568 1.116C26.832 1.38 26.964 1.8 26.964 2.376V20.196C26.964 21.324 26.796 22.368 26.46 23.328C26.148 24.264 25.584 25.068 24.768 25.74L20.124 29.664C19.308 30.336 18.204 30.864 16.812 31.248C15.42 31.632 13.62 31.824 11.412 31.824ZM26.604 20.196V2.376C26.604 1.92 26.496 1.596 26.28 1.404C26.088 1.188 25.764 1.08 25.308 1.08H19.656C19.2 1.08 18.864 1.188 18.648 1.404C18.456 1.596 18.36 1.92 18.36 2.376V18.756C18.36 19.236 18.216 19.644 17.928 19.98C17.664 20.292 17.016 20.448 15.984 20.448C14.88 20.448 14.172 20.292 13.86 19.98C13.572 19.644 13.428 19.236 13.428 18.756V14.364C13.428 13.908 13.32 13.584 13.104 13.392C12.912 13.176 12.588 13.068 12.132 13.068H6.912C6.456 13.068 6.12 13.176 5.904 13.392C5.712 13.584 5.616 13.908 5.616 14.364V20.196C5.616 21.3 5.76 22.308 6.048 23.22C6.36 24.108 6.9 24.876 7.668 25.524C8.46 26.148 9.528 26.64 10.872 27C12.24 27.36 13.968 27.54 16.056 27.54C18.168 27.54 19.908 27.36 21.276 27C22.644 26.64 23.712 26.148 24.48 25.524C25.272 24.876 25.824 24.108 26.136 23.22C26.448 22.308 26.604 21.3 26.604 20.196ZM22.284 4.32H22.644V19.332C22.644 20.748 22.188 21.912 21.276 22.824C20.388 23.736 18.672 24.192 16.128 24.192C14.784 24.192 13.668 24.072 12.78 23.832C11.916 23.592 11.232 23.268 10.728 22.86C10.224 22.428 9.864 21.912 9.648 21.312C9.456 20.712 9.36 20.052 9.36 19.332V16.488H9.72V19.332C9.72 20.7 10.164 21.792 11.052 22.608C11.964 23.424 13.656 23.832 16.128 23.832C18.504 23.832 20.124 23.424 20.988 22.608C21.852 21.768 22.284 20.676 22.284 19.332V4.32Z"/>
</mask>
<path d="M11.412 31.824C9.228 31.824 7.428 31.572 6.012 31.068C4.62 30.588 3.516 29.94 2.7 29.124C1.908 28.308 1.356 27.372 1.044 26.316C0.756 25.26 0.612 24.168 0.612 23.04V18.288C0.612 17.976 0.648 17.712 0.72 17.496C0.816 17.256 0.936 17.076 1.08 16.956L5.76 13.032C5.88 12.936 6.036 12.864 6.228 12.816C6.42 12.744 6.648 12.708 6.912 12.708H12.132C12.396 12.708 12.624 12.744 12.816 12.816C13.032 12.864 13.212 12.948 13.356 13.068V6.3C13.356 5.988 13.392 5.724 13.464 5.508C13.56 5.292 13.692 5.112 13.86 4.968L18.504 1.044C18.624 0.947999 18.78 0.875999 18.972 0.827998C19.188 0.755999 19.416 0.719999 19.656 0.719999H25.308C25.884 0.719999 26.304 0.851999 26.568 1.116C26.832 1.38 26.964 1.8 26.964 2.376V20.196C26.964 21.324 26.796 22.368 26.46 23.328C26.148 24.264 25.584 25.068 24.768 25.74L20.124 29.664C19.308 30.336 18.204 30.864 16.812 31.248C15.42 31.632 13.62 31.824 11.412 31.824ZM26.604 20.196V2.376C26.604 1.92 26.496 1.596 26.28 1.404C26.088 1.188 25.764 1.08 25.308 1.08H19.656C19.2 1.08 18.864 1.188 18.648 1.404C18.456 1.596 18.36 1.92 18.36 2.376V18.756C18.36 19.236 18.216 19.644 17.928 19.98C17.664 20.292 17.016 20.448 15.984 20.448C14.88 20.448 14.172 20.292 13.86 19.98C13.572 19.644 13.428 19.236 13.428 18.756V14.364C13.428 13.908 13.32 13.584 13.104 13.392C12.912 13.176 12.588 13.068 12.132 13.068H6.912C6.456 13.068 6.12 13.176 5.904 13.392C5.712 13.584 5.616 13.908 5.616 14.364V20.196C5.616 21.3 5.76 22.308 6.048 23.22C6.36 24.108 6.9 24.876 7.668 25.524C8.46 26.148 9.528 26.64 10.872 27C12.24 27.36 13.968 27.54 16.056 27.54C18.168 27.54 19.908 27.36 21.276 27C22.644 26.64 23.712 26.148 24.48 25.524C25.272 24.876 25.824 24.108 26.136 23.22C26.448 22.308 26.604 21.3 26.604 20.196ZM22.284 4.32H22.644V19.332C22.644 20.748 22.188 21.912 21.276 22.824C20.388 23.736 18.672 24.192 16.128 24.192C14.784 24.192 13.668 24.072 12.78 23.832C11.916 23.592 11.232 23.268 10.728 22.86C10.224 22.428 9.864 21.912 9.648 21.312C9.456 20.712 9.36 20.052 9.36 19.332V16.488H9.72V19.332C9.72 20.7 10.164 21.792 11.052 22.608C11.964 23.424 13.656 23.832 16.128 23.832C18.504 23.832 20.124 23.424 20.988 22.608C21.852 21.768 22.284 20.676 22.284 19.332V4.32Z" fill="#EAFFF7"/>
<path d="M6.012 31.068L6.17967 30.5969L6.175 30.5953L6.012 31.068ZM2.7 29.124L2.34117 29.4723L2.34645 29.4776L2.7 29.124ZM1.044 26.316L0.561511 26.4476L0.564491 26.4577L1.044 26.316ZM0.72 17.496L0.255762 17.3103L0.250305 17.3239L0.245659 17.3379L0.72 17.496ZM1.08 16.956L1.40009 17.3401L1.40125 17.3391L1.08 16.956ZM5.76 13.032L5.44757 12.6415L5.43875 12.6489L5.76 13.032ZM6.228 12.816L6.34927 13.3011L6.3769 13.2942L6.40356 13.2842L6.228 12.816ZM12.816 12.816L12.6404 13.2842L12.6733 13.2965L12.7075 13.3041L12.816 12.816ZM13.356 13.068L13.0359 13.4521L13.856 14.1355V13.068H13.356ZM13.464 5.508L13.0071 5.30493L12.9973 5.32699L12.9897 5.34989L13.464 5.508ZM13.86 4.968L13.5373 4.58607L13.5346 4.58837L13.86 4.968ZM18.504 1.044L18.1915 0.653423L18.1813 0.662082L18.504 1.044ZM18.972 0.827998L19.0933 1.31307L19.1119 1.30841L19.1301 1.30234L18.972 0.827998ZM26.568 1.116L26.9216 0.762446L26.9216 0.762445L26.568 1.116ZM26.46 23.328L25.988 23.1628L25.9857 23.1699L26.46 23.328ZM24.768 25.74L24.4501 25.354L24.4453 25.3581L24.768 25.74ZM20.124 29.664L20.4419 30.05L20.4467 30.0459L20.124 29.664ZM16.812 31.248L16.679 30.766L16.812 31.248ZM26.28 1.404L25.9063 1.73618L25.9258 1.75816L25.9478 1.7777L26.28 1.404ZM18.648 1.404L18.2944 1.05045L18.2944 1.05045L18.648 1.404ZM17.928 19.98L17.5484 19.6546L17.5463 19.657L17.928 19.98ZM13.86 19.98L13.4804 20.3054L13.4929 20.32L13.5064 20.3336L13.86 19.98ZM13.104 13.392L12.7303 13.7242L12.7498 13.7462L12.7718 13.7657L13.104 13.392ZM5.904 13.392L5.55045 13.0384L5.55045 13.0384L5.904 13.392ZM6.048 23.22L5.57121 23.3706L5.57362 23.3782L5.57627 23.3857L6.048 23.22ZM7.668 25.524L7.34557 25.9061L7.35198 25.9116L7.35856 25.9167L7.668 25.524ZM10.872 27L10.7426 27.483L10.7448 27.4835L10.872 27ZM24.48 25.524L24.7953 25.9121L24.7966 25.911L24.48 25.524ZM26.136 23.22L26.6077 23.3857L26.6091 23.3818L26.136 23.22ZM22.284 4.32V3.82H21.784V4.32H22.284ZM22.644 4.32H23.144V3.82H22.644V4.32ZM21.276 22.824L20.9224 22.4704L20.9178 22.4752L21.276 22.824ZM12.78 23.832L12.6462 24.3138L12.6495 24.3147L12.78 23.832ZM10.728 22.86L10.4025 23.2398L10.4134 23.2486L10.728 22.86ZM9.648 21.312L9.17179 21.4644L9.17452 21.4729L9.17756 21.4814L9.648 21.312ZM9.36 16.488V15.988H8.86V16.488H9.36ZM9.72 16.488H10.22V15.988H9.72V16.488ZM11.052 22.608L10.7137 22.9762L10.7186 22.9806L11.052 22.608ZM20.988 22.608L21.3313 22.9715L21.3365 22.9665L20.988 22.608ZM11.412 31.324C9.26158 31.324 7.5234 31.0752 6.17966 30.5969L5.84434 31.5391C7.3326 32.0688 9.19442 32.324 11.412 32.324V31.324ZM6.175 30.5953C4.83556 30.1334 3.80319 29.5201 3.05355 28.7704L2.34645 29.4776C3.22881 30.3599 4.40444 31.0426 5.84901 31.5407L6.175 30.5953ZM3.05879 28.7758C2.32124 28.0159 1.81181 27.1501 1.52351 26.1743L0.564491 26.4577C0.900187 27.5939 1.49476 28.6001 2.34121 29.4722L3.05879 28.7758ZM1.52638 26.1844C1.25043 25.1726 1.112 24.1249 1.112 23.04H0.112C0.112 24.2111 0.261571 25.3474 0.561618 26.4476L1.52638 26.1844ZM1.112 23.04V18.288H0.112V23.04H1.112ZM1.112 18.288C1.112 18.0113 1.14433 17.8042 1.19434 17.6541L0.245659 17.3379C0.151674 17.6198 0.112 17.9407 0.112 18.288H1.112ZM1.18424 17.6817C1.26051 17.491 1.33945 17.3906 1.40009 17.3401L0.759908 16.5719C0.532553 16.7614 0.37149 17.021 0.255762 17.3103L1.18424 17.6817ZM1.40125 17.3391L6.08125 13.4151L5.43875 12.6489L0.75875 16.5729L1.40125 17.3391ZM6.07235 13.4224C6.1225 13.3823 6.20771 13.3365 6.34927 13.3011L6.10673 12.3309C5.86429 12.3915 5.63751 12.4897 5.44765 12.6416L6.07235 13.4224ZM6.40356 13.2842C6.52588 13.2383 6.69155 13.208 6.912 13.208V12.208C6.60445 12.208 6.31412 12.2497 6.05244 12.3478L6.40356 13.2842ZM6.912 13.208H12.132V12.208H6.912V13.208ZM12.132 13.208C12.3524 13.208 12.5181 13.2383 12.6404 13.2842L12.9916 12.3478C12.7299 12.2497 12.4396 12.208 12.132 12.208V13.208ZM12.7075 13.3041C12.8597 13.3379 12.9633 13.3916 13.0359 13.4521L13.6761 12.6839C13.4607 12.5044 13.2043 12.3901 12.9245 12.3279L12.7075 13.3041ZM13.856 13.068V6.3H12.856V13.068H13.856ZM13.856 6.3C13.856 6.02329 13.8883 5.81616 13.9383 5.66611L12.9897 5.34989C12.8957 5.63184 12.856 5.95271 12.856 6.3H13.856ZM13.9209 5.71107C13.9888 5.55823 14.0776 5.44002 14.1854 5.34763L13.5346 4.58837C13.3064 4.78398 13.1312 5.02577 13.0071 5.30493L13.9209 5.71107ZM14.1827 5.34992L18.8267 1.42592L18.1813 0.662082L13.5373 4.58608L14.1827 5.34992ZM18.8163 1.43444C18.8665 1.39432 18.9517 1.34846 19.0933 1.31307L18.8507 0.342927C18.6083 0.403539 18.3815 0.501683 18.1917 0.653564L18.8163 1.43444ZM19.1301 1.30234C19.2924 1.24824 19.4668 1.22 19.656 1.22V0.219999C19.3652 0.219999 19.0836 0.263762 18.8139 0.353656L19.1301 1.30234ZM19.656 1.22H25.308V0.219999H19.656V1.22ZM25.308 1.22C25.8217 1.22 26.0844 1.33947 26.2144 1.46955L26.9216 0.762445C26.5236 0.364525 25.9463 0.219999 25.308 0.219999V1.22ZM26.2144 1.46955C26.3445 1.59963 26.464 1.86228 26.464 2.376H27.464C27.464 1.73771 27.3195 1.16037 26.9216 0.762446L26.2144 1.46955ZM26.464 2.376V20.196H27.464V2.376H26.464ZM26.464 20.196C26.464 21.2738 26.3036 22.2614 25.9881 23.1628L26.9319 23.4932C27.2884 22.4746 27.464 21.3742 27.464 20.196H26.464ZM25.9857 23.1699C25.7055 24.0103 25.199 24.7373 24.4501 25.354L25.0859 26.126C25.969 25.3987 26.5905 24.5177 26.9343 23.4861L25.9857 23.1699ZM24.4453 25.3581L19.8013 29.2821L20.4467 30.0459L25.0907 26.1219L24.4453 25.3581ZM19.8061 29.278C19.0603 29.8922 18.0267 30.3942 16.679 30.766L16.945 31.73C18.3813 31.3338 19.5557 30.7798 20.4419 30.05L19.8061 29.278ZM16.679 30.766C15.3468 31.1335 13.5961 31.324 11.412 31.324V32.324C13.6439 32.324 15.4932 32.1305 16.945 31.73L16.679 30.766ZM27.104 20.196V2.376H26.104V20.196H27.104ZM27.104 2.376C27.104 1.85856 26.9835 1.36037 26.6122 1.03029L25.9478 1.7777C26.0085 1.83163 26.104 1.98144 26.104 2.376H27.104ZM26.6537 1.07182C26.3236 0.700482 25.8254 0.579999 25.308 0.579999V1.58C25.7026 1.58 25.8524 1.67552 25.9063 1.73618L26.6537 1.07182ZM25.308 0.579999H19.656V1.58H25.308V0.579999ZM19.656 0.579999C19.1321 0.579999 18.6417 0.703145 18.2944 1.05045L19.0016 1.75755C19.0863 1.67285 19.2679 1.58 19.656 1.58V0.579999ZM18.2944 1.05045C17.9621 1.38277 17.86 1.87229 17.86 2.376H18.86C18.86 1.96771 18.9499 1.80923 19.0016 1.75755L18.2944 1.05045ZM17.86 2.376V18.756H18.86V2.376H17.86ZM17.86 18.756C17.86 19.1275 17.7519 19.4172 17.5484 19.6546L18.3076 20.3054C18.6801 19.8708 18.86 19.3445 18.86 18.756H17.86ZM17.5463 19.657C17.5141 19.695 17.4074 19.7774 17.127 19.8449C16.8562 19.9101 16.4796 19.948 15.984 19.948V20.948C16.5204 20.948 16.9838 20.9079 17.361 20.8171C17.7286 20.7286 18.0779 20.577 18.3097 20.303L17.5463 19.657ZM15.984 19.948C15.4515 19.948 15.038 19.91 14.7326 19.8427C14.4178 19.7734 14.2715 19.6844 14.2136 19.6264L13.5064 20.3336C13.7605 20.5876 14.1242 20.7326 14.5174 20.8193C14.92 20.908 15.4125 20.948 15.984 20.948V19.948ZM14.2396 19.6546C14.0361 19.4172 13.928 19.1275 13.928 18.756H12.928C12.928 19.3445 13.1079 19.8708 13.4804 20.3054L14.2396 19.6546ZM13.928 18.756V14.364H12.928V18.756H13.928ZM13.928 14.364C13.928 13.8466 13.8075 13.3484 13.4362 13.0183L12.7718 13.7657C12.8325 13.8196 12.928 13.9694 12.928 14.364H13.928ZM13.4777 13.0598C13.1476 12.6885 12.6494 12.568 12.132 12.568V13.568C12.5266 13.568 12.6764 13.6635 12.7303 13.7242L13.4777 13.0598ZM12.132 12.568H6.912V13.568H12.132V12.568ZM6.912 12.568C6.38809 12.568 5.89775 12.6911 5.55045 13.0384L6.25755 13.7456C6.34225 13.6609 6.52391 13.568 6.912 13.568V12.568ZM5.55045 13.0384C5.21812 13.3708 5.116 13.8603 5.116 14.364H6.116C6.116 13.9557 6.20588 13.7972 6.25755 13.7456L5.55045 13.0384ZM5.116 14.364V20.196H6.116V14.364H5.116ZM5.116 20.196C5.116 21.3434 5.26566 22.403 5.57121 23.3706L6.52479 23.0694C6.25434 22.213 6.116 21.2566 6.116 20.196H5.116ZM5.57627 23.3857C5.91985 24.3636 6.51417 25.2047 7.34557 25.9061L7.99044 25.1419C7.28583 24.5473 6.80015 23.8524 6.51973 23.0543L5.57627 23.3857ZM7.35856 25.9167C8.21999 26.5954 9.3564 27.1117 10.7426 27.483L11.0014 26.517C9.6996 26.1683 8.70001 25.7006 7.97744 25.1313L7.35856 25.9167ZM10.7448 27.4835C12.1689 27.8583 13.9434 28.04 16.056 28.04V27.04C13.9926 27.04 12.3111 26.8617 10.9992 26.5165L10.7448 27.4835ZM16.056 28.04C18.1921 28.04 19.9787 27.8584 21.4032 27.4835L21.1488 26.5165C19.8373 26.8616 18.1439 27.04 16.056 27.04V28.04ZM21.4032 27.4835C22.8126 27.1126 23.9537 26.5958 24.7953 25.9121L24.1647 25.1359C23.4703 25.7002 22.4754 26.1674 21.1488 26.5165L21.4032 27.4835ZM24.7966 25.911C25.6532 25.2101 26.2627 24.3678 26.6077 23.3857L25.6643 23.0543C25.3853 23.8482 24.8908 24.5419 24.1634 25.137L24.7966 25.911ZM26.6091 23.3818C26.9413 22.4108 27.104 21.3472 27.104 20.196H26.104C26.104 21.2528 25.9547 22.2052 25.6629 23.0582L26.6091 23.3818ZM22.284 4.82H22.644V3.82H22.284V4.82ZM22.144 4.32V19.332H23.144V4.32H22.144ZM22.144 19.332C22.144 20.6297 21.7311 21.6618 20.9224 22.4704L21.6296 23.1776C22.645 22.1622 23.144 20.8663 23.144 19.332H22.144ZM20.9178 22.4752C20.1825 23.2303 18.6545 23.692 16.128 23.692V24.692C18.6895 24.692 20.5935 24.2417 21.6342 23.1728L20.9178 22.4752ZM16.128 23.692C14.8098 23.692 13.7413 23.5739 12.9105 23.3493L12.6495 24.3147C13.5947 24.5701 14.7582 24.692 16.128 24.692V23.692ZM12.9138 23.3502C12.0922 23.122 11.4771 22.8231 11.0426 22.4714L10.4134 23.2486C10.9869 23.7129 11.7398 24.062 12.6462 24.3138L12.9138 23.3502ZM11.0534 22.4804C10.6123 22.1023 10.3039 21.6578 10.1184 21.1426L9.17756 21.4814C9.42411 22.1662 9.83567 22.7537 10.4026 23.2396L11.0534 22.4804ZM10.1242 21.1596C9.95005 20.6153 9.86 20.0075 9.86 19.332H8.86C8.86 20.0965 8.96196 20.8087 9.17179 21.4644L10.1242 21.1596ZM9.86 19.332V16.488H8.86V19.332H9.86ZM9.36 16.988H9.72V15.988H9.36V16.988ZM9.22 16.488V19.332H10.22V16.488H9.22ZM9.22 19.332C9.22 20.8192 9.7083 22.0523 10.7137 22.9762L11.3903 22.2398C10.6197 21.5317 10.22 20.5808 10.22 19.332H9.22ZM10.7186 22.9806C11.7789 23.9293 13.6397 24.332 16.128 24.332V23.332C13.6723 23.332 12.1491 22.9187 11.3854 22.2354L10.7186 22.9806ZM16.128 24.332C18.5218 24.332 20.3174 23.9291 21.3313 22.9715L20.6447 22.2445C19.9306 22.9189 18.4862 23.332 16.128 23.332V24.332ZM21.3365 22.9665C22.309 22.0211 22.784 20.7939 22.784 19.332H21.784C21.784 20.5581 21.395 21.5149 20.6395 22.2495L21.3365 22.9665ZM22.784 19.332V4.32H21.784V19.332H22.784Z" fill="#171614" mask="url(#path-1-outside-1_643_277)"/>
</svg>
